<svg xmlns="http://www.w3.org/2000/svg" viewBox="0 0 138 138">
  <path d="M56.5 7.22a25 25 0 0 1 25 0l34.76 20.06a25 25 0 0 1 12.5 21.65v40.14a25 25 0 0 1-12.5 21.65L81.5 130.78a25 25 0 0 1-25 0l-34.76-20.06a25 25 0 0 1-12.5-21.65V48.93a25 25 0 0 1 12.5-21.65L56.5 7.22Z" fill="#fff"/>
  <path d="M111.26 50.03v.54c0 8.93-4.77 17.18-12.5 21.65L64 92.28c-7.74 4.47-17.26 4.47-25 0L4.24 72.22c-.57-.33-1.12-.69-1.66-1.06L0 62.5l8.5-33L16 17.5 38 40 65 0l46.26 50.03Z" fill="#066c61" transform="translate(17.5 38.5)"/>
  <path d="M7.67 74.73C4.13 71.76 1.5 67.87.04 63.53L0 63.02C1.17 50.02 6.2 23.32 17 20.52 31 16.89 38 63.02 38 63.02S44.22-1.23 63.5.02C79 1.02 85 33.02 81 91.52l-.02.02L71 97.3a25 25 0 0 1-10.91 3.3c6.98-12.14 6.32-60.06 2.91-77.58-1.99 5.51-3.56 14-5.25 23.16-3.84 20.72-8.31 44.88-19.75 45.84-.42.03-.84.01-1.26-.07l-3.79-2.18C25.75 82.79 20.18 61.37 18 49.52c-.4 10.72-4.44 22.98-6.45 27.89l-.31-.18c-.26-.15-.51-.3-.77-.46l-2.8-2.04Z" fill="#b3dbc9" transform="translate(10.5 33.482)"/>
</svg>
